<svg width="46" height="46" viewBox="0 0 46 46" fill="none" xmlns="http://www.w3.org/2000/svg">
<mask id="mask0_0_27" style="mask-type:luminance" maskUnits="userSpaceOnUse" x="0" y="0" width="46" height="46">
<path d="M46 0H0V46H46V0Z" fill="white"/>
</mask>
<g mask="url(#mask0_0_27)">
<path d="M45.1317 20.9501L25.0469 0.868254C24.772 0.593118 24.4455 0.374865 24.0861 0.225956C23.7267 0.0770478 23.3415 0.000404358 22.9525 0.000404358C22.5635 0.000404358 22.1783 0.0770478 21.819 0.225956C21.4596 0.374865 21.1331 0.593118 20.8581 0.868254L16.6894 5.037L21.9794 10.327C22.6032 10.114 23.2744 10.0806 23.9164 10.2308C24.5583 10.381 25.145 10.7086 25.6097 11.1763C26.0743 11.6439 26.3982 12.2328 26.5442 12.8757C26.6903 13.5185 26.6526 14.1895 26.4356 14.812L31.5329 19.9123C32.2871 19.6467 33.1092 19.6459 33.8639 19.91C34.6185 20.174 35.2608 20.6872 35.6848 21.365C36.1089 22.0428 36.2895 22.8448 36.197 23.6389C36.1044 24.4331 35.7442 25.1721 35.1756 25.7341C34.6 26.3133 33.8411 26.6746 33.0287 26.7564C32.2162 26.8382 31.4006 26.6354 30.7211 26.1826C30.0416 25.7298 29.5403 25.0552 29.303 24.2739C29.0657 23.4926 29.107 22.6531 29.4199 21.8989L24.6674 17.1436V29.6585C25.3898 30.0161 25.9678 30.6104 26.3051 31.3425C26.6424 32.0745 26.7186 32.9001 26.521 33.6815C26.3234 34.4629 25.864 35.153 25.2192 35.6368C24.5745 36.1205 23.7835 36.3687 22.978 36.3399C22.1725 36.3112 21.4012 36.0072 20.7926 35.4787C20.184 34.9502 19.775 34.2291 19.6337 33.4355C19.4923 32.642 19.6272 31.824 20.0159 31.1179C20.4045 30.4117 21.0234 29.8601 21.7694 29.555V16.9251C21.339 16.7488 20.9478 16.489 20.6183 16.1607C20.2887 15.8324 20.0274 15.4421 19.8495 15.0124C19.6714 14.5826 19.5802 14.1218 19.5812 13.6567C19.5821 13.1916 19.6751 12.7312 19.8547 12.3021L14.6424 7.08686L0.871082 20.8581C0.595951 21.1331 0.377695 21.4596 0.228787 21.819C0.0798782 22.1784 0.00323486 22.5636 0.00323486 22.9526C0.00323486 23.3416 0.0798782 23.7267 0.228787 24.0861C0.377695 24.4455 0.595951 24.772 0.871082 25.047L20.9559 45.1318C21.2308 45.4069 21.5573 45.6251 21.9167 45.774C22.2761 45.923 22.6613 45.9996 23.0503 45.9996C23.4393 45.9996 23.8245 45.923 24.1838 45.774C24.5432 45.6251 24.8697 45.4069 25.1447 45.1318L45.1346 25.1419C45.6895 24.5861 46.0012 23.8329 46.0012 23.0474C46.0012 22.2621 45.6895 21.5088 45.1346 20.953" fill="#F24E1E"/>
</g>
</svg>
