<svg width="18" height="20" viewBox="0 0 18 20" fill="none" xmlns="http://www.w3.org/2000/svg">
<g style="mix-blend-mode:color-dodge">
<path d="M3.14628 15.8699C2.84505 15.6779 2.58599 15.4321 2.28274 15.0865C2.12535 14.9024 1.96937 14.7171 1.81483 14.5307C1.34992 13.9787 1.05672 13.7233 0.75448 13.6187C0.627309 13.5785 0.509846 13.5143 0.409006 13.43C0.308166 13.3457 0.225989 13.243 0.167313 13.1278C0.108637 13.0127 0.0746482 12.8875 0.0673489 12.7596C0.0600495 12.6318 0.0795867 12.5038 0.12481 12.3832C0.170033 12.2627 0.240029 12.152 0.330674 12.0577C0.42132 11.9634 0.530783 11.8874 0.652618 11.8342C0.774453 11.7809 0.906197 11.7516 1.04009 11.7477C1.17399 11.7439 1.30733 11.7658 1.43226 11.812C2.18735 12.0712 2.69845 12.5176 3.38727 13.3365C3.29288 13.2241 3.72867 13.7464 3.82205 13.8539C4.01283 14.0718 4.15341 14.2043 4.26386 14.2744C4.4687 14.4059 4.85428 14.4625 5.4186 14.4088C5.44269 14.0421 5.51298 13.6859 5.62143 13.3566C2.64121 12.6606 0.954298 10.8222 0.954298 7.21646C0.954298 6.02798 1.32582 4.95566 2.01665 4.0571C1.79776 3.19886 1.83089 2.1611 2.3199 0.99278C2.37527 0.860444 2.46077 0.741556 2.57019 0.644748C2.67961 0.54794 2.8102 0.475641 2.95249 0.4331C3.03382 0.41006 3.08001 0.40046 3.16134 0.38798C3.96765 0.2699 5.10632 0.55118 6.5904 1.4411C7.47482 1.24342 8.38019 1.1442 9.28846 1.14542C10.2042 1.14542 11.1149 1.2443 11.9835 1.4411C13.4666 0.54542 14.6083 0.26318 15.4196 0.38798C15.5049 0.40142 15.5782 0.4187 15.6385 0.43694C15.7779 0.480886 15.9055 0.553516 16.0124 0.649717C16.1192 0.745918 16.2027 0.863349 16.257 0.99374C16.746 2.16014 16.7792 3.1979 16.5603 4.05614C17.2541 4.9547 17.6226 6.01934 17.6226 7.21646C17.6226 10.8241 15.9417 12.6558 12.9615 13.3537C13.087 13.7521 13.1523 14.1966 13.1523 14.6785C13.1523 15.316 13.1503 15.9256 13.1453 16.6081C13.1453 16.7905 13.1433 16.9864 13.1402 17.2859C13.3652 17.3333 13.5663 17.4532 13.7098 17.6255C13.8533 17.7978 13.9305 18.012 13.9284 18.2323C13.9263 18.4525 13.845 18.6654 13.6982 18.8351C13.5514 19.0049 13.348 19.1212 13.1222 19.1646C11.9775 19.3835 11.13 18.6539 11.13 17.7016L11.132 17.2725L11.137 16.5957C11.1421 15.9169 11.1451 15.3112 11.1451 14.6785C11.1451 14.0094 10.9603 13.5726 10.7173 13.372C10.0536 12.8248 10.39 11.7841 11.2605 11.691C14.2387 11.3704 15.6144 10.2673 15.6144 7.21742C15.6144 6.30062 15.3011 5.54222 14.6976 4.90862C14.5708 4.7754 14.4858 4.61078 14.4522 4.43355C14.4187 4.25632 14.438 4.07364 14.5078 3.90638C14.6745 3.50798 14.7448 2.98766 14.6032 2.35694L14.5932 2.35886C14.1002 2.49326 13.4786 2.78126 12.7275 3.27086C12.6064 3.34944 12.4688 3.40176 12.3243 3.42414C12.1799 3.44653 12.032 3.43845 11.8911 3.40046C11.0436 3.17577 10.168 3.06273 9.28846 3.06446C8.39479 3.06446 7.50916 3.17966 6.68579 3.40046C6.54565 3.43814 6.39862 3.44624 6.25489 3.42419C6.11115 3.40214 5.97415 3.35048 5.85338 3.27278C5.09728 2.78606 4.47372 2.49806 3.97568 2.36366C3.83209 2.99054 3.90338 3.5099 4.06906 3.90638C4.13895 4.07364 4.15822 4.25632 4.12466 4.43355C4.0911 4.61078 4.00607 4.7754 3.87929 4.90862C3.27983 5.53838 2.96253 6.30926 2.96253 7.21646C2.96253 10.2616 4.33917 11.3733 7.30231 11.6901C8.17087 11.7841 8.50926 12.8209 7.84956 13.3691C7.65576 13.5294 7.41779 14.0718 7.41779 14.6785V17.7016C7.41779 18.6481 6.58036 19.3585 5.44972 19.1694C5.22 19.1314 5.01126 19.0182 4.8593 18.8492C4.70735 18.6802 4.62164 18.4659 4.61689 18.243C4.61214 18.0202 4.68864 17.8027 4.83327 17.6279C4.9779 17.4531 5.18165 17.3318 5.40956 17.2849V16.3345C4.49581 16.3941 3.74172 16.251 3.14628 15.8699Z" fill="white"/>
</g>
</svg>
