<svg width="21" height="20" viewBox="0 0 21 20" fill="none" xmlns="http://www.w3.org/2000/svg">
<g style="mix-blend-mode:color-dodge">
<path d="M4.21455 2.22321C4.21427 2.81255 3.99198 3.37763 3.59659 3.79415C3.20121 4.21066 2.6651 4.44449 2.10622 4.4442C1.54734 4.4439 1.01145 4.20951 0.616461 3.79257C0.221468 3.37564 -0.000279178 2.81033 2.6379e-07 2.22099C0.000279705 1.63165 0.222563 1.06657 0.617951 0.650052C1.01334 0.233536 1.54944 -0.00029439 2.10833 2.78164e-07C2.66721 0.000294947 3.20309 0.234691 3.59808 0.651623C3.99308 1.06856 4.21482 1.63387 4.21455 2.22321ZM4.27776 6.08966H0.0632184V20H4.27776V6.08966ZM10.9367 6.08966H6.74327V20H10.8946V12.7004C10.8946 8.63397 15.9204 8.25621 15.9204 12.7004V20H20.0823V11.1894C20.0823 4.3342 12.6436 4.58975 10.8946 7.95622L10.9367 6.08966Z" fill="white"/>
</g>
</svg>
